<?xml version="1.0" standalone="no"?>
<!DOCTYPE svg PUBLIC "-//W3C//DTD SVG 20010904//EN"
 "http://www.w3.org/TR/2001/REC-SVG-20010904/DTD/svg10.dtd">
<svg version="1.0" xmlns="http://www.w3.org/2000/svg"
 width="3304.000000pt" height="3304.000000pt" viewBox="0 0 3304.000000 3304.000000"
 preserveAspectRatio="xMidYMid meet">

<g transform="translate(0.000000,3304.000000) scale(0.100000,-0.100000)"
fill="#000000" stroke="none">
<path d="M18030 30680 c0 -5 5 -10 11 -10 5 0 7 5 4 10 -3 6 -8 10 -11 10 -2
0 -4 -4 -4 -10z"/>
<path d="M13666 30513 c-6 -14 -5 -15 5 -6 7 7 10 15 7 18 -3 3 -9 -2 -12 -12z"/>
<path d="M13800 30520 c-9 -6 -10 -10 -3 -10 6 0 15 5 18 10 8 12 4 12 -15 0z"/>
<path d="M18370 30470 c-9 -6 -10 -10 -3 -10 6 0 15 5 18 10 8 12 4 12 -15 0z"/>
<path d="M13297 30229 c7 -7 15 -10 18 -7 3 3 -2 9 -12 12 -14 6 -15 5 -6 -5z"/>
<path d="M12030 29879 c0 -5 5 -7 10 -4 6 3 10 8 10 11 0 2 -4 4 -10 4 -5 0
-10 -5 -10 -11z"/>
<path d="M21869 29483 c-13 -16 -12 -17 4 -4 16 13 21 21 13 21 -2 0 -10 -8
-17 -17z"/>
<path d="M22196 29348 c3 -5 10 -6 15 -3 13 9 11 12 -6 12 -8 0 -12 -4 -9 -9z"/>
<path d="M10020 29036 c0 -2 7 -7 16 -10 8 -3 12 -2 9 4 -6 10 -25 14 -25 6z"/>
<path d="M9890 28909 c0 -5 5 -7 10 -4 6 3 10 8 10 11 0 2 -4 4 -10 4 -5 0
-10 -5 -10 -11z"/>
<path d="M18345 28860 c-3 -5 -1 -10 4 -10 6 0 11 5 11 10 0 6 -2 10 -4 10 -3
0 -8 -4 -11 -10z"/>
<path d="M14666 28771 c-4 -5 -2 -12 3 -15 5 -4 12 -2 15 3 4 5 2 12 -3 15 -5
4 -12 2 -15 -3z"/>
<path d="M13417 28489 c7 -7 15 -10 18 -7 3 3 -2 9 -12 12 -14 6 -15 5 -6 -5z"/>
<path d="M8730 28430 c-9 -6 -10 -10 -3 -10 6 0 15 5 18 10 8 12 4 12 -15 0z"/>
<path d="M20592 28364 c-7 -8 -8 -14 -3 -14 10 0 25 19 20 25 -2 1 -10 -3 -17
-11z"/>
<path d="M18600 28216 c0 -2 7 -7 16 -10 8 -3 12 -2 9 4 -6 10 -25 14 -25 6z"/>
<path d="M18350 28090 c-9 -6 -10 -10 -3 -10 6 0 15 5 18 10 8 12 4 12 -15 0z"/>
<path d="M24536 27937 c3 -10 9 -15 12 -12 3 3 0 11 -7 18 -10 9 -11 8 -5 -6z"/>
<path d="M24583 27905 c0 -8 4 -12 9 -9 5 3 6 10 3 15 -9 13 -12 11 -12 -6z"/>
<path d="M13955 27880 c3 -5 8 -10 11 -10 2 0 4 5 4 10 0 6 -5 10 -11 10 -5 0
-7 -4 -4 -10z"/>
<path d="M19949 27863 c-13 -16 -12 -17 4 -4 16 13 21 21 13 21 -2 0 -10 -8
-17 -17z"/>
<path d="M11211 27784 c0 -11 3 -14 6 -6 3 7 2 16 -1 19 -3 4 -6 -2 -5 -13z"/>
<path d="M17735 27789 c-4 -6 -5 -12 -2 -15 2 -3 7 2 10 11 7 17 1 20 -8 4z"/>
<path d="M20275 27240 c3 -5 8 -10 11 -10 2 0 4 5 4 10 0 6 -5 10 -11 10 -5 0
-7 -4 -4 -10z"/>
<path d="M11285 27140 c-3 -5 -1 -10 4 -10 6 0 11 5 11 10 0 6 -2 10 -4 10 -3
0 -8 -4 -11 -10z"/>
<path d="M21796 27011 c-4 -5 -2 -12 3 -15 5 -4 12 -2 15 3 4 5 2 12 -3 15 -5
4 -12 2 -15 -3z"/>
<path d="M22919 26973 c-13 -16 -12 -17 4 -4 16 13 21 21 13 21 -2 0 -10 -8
-17 -17z"/>
<path d="M25958 26983 c7 -3 16 -2 19 1 4 3 -2 6 -13 5 -11 0 -14 -3 -6 -6z"/>
<path d="M9653 26885 c0 -8 4 -12 9 -9 5 3 6 10 3 15 -9 13 -12 11 -12 -6z"/>
<path d="M22991 26804 c0 -11 3 -14 6 -6 3 7 2 16 -1 19 -3 4 -6 -2 -5 -13z"/>
<path d="M26490 26466 c0 -2 8 -10 18 -17 15 -13 16 -12 3 4 -13 16 -21 21
-21 13z"/>
<path d="M21945 26439 c-4 -6 -5 -12 -2 -15 2 -3 7 2 10 11 7 17 1 20 -8 4z"/>
<path d="M10795 26360 c3 -5 8 -10 11 -10 2 0 4 5 4 10 0 6 -5 10 -11 10 -5 0
-7 -4 -4 -10z"/>
<path d="M14055 26134 c-223 -40 -610 -160 -929 -288 -814 -328 -1788 -876
-2506 -1411 -540 -403 -764 -607 -1122 -1025 -96 -113 -231 -266 -299 -340
-118 -128 -219 -250 -219 -265 0 -4 -29 -41 -64 -84 -159 -192 -421 -567 -608
-871 -275 -448 -542 -986 -751 -1516 -244 -617 -476 -1450 -493 -1774 l-6
-115 88 86 c432 419 741 626 1484 998 550 275 1044 484 1380 586 291 88 610
194 667 221 51 25 52 26 59 81 13 103 1 193 -35 260 -46 86 -146 207 -237 287
-44 38 -110 98 -148 134 l-69 65 7 82 c8 112 39 225 86 322 56 114 154 214
364 372 94 72 239 194 321 272 339 320 377 343 699 415 82 18 150 34 151 36 1
2 78 139 170 306 115 206 173 302 184 302 31 0 156 -67 193 -104 73 -72 116
-181 133 -339 7 -63 5 -72 -24 -131 -71 -145 -292 -308 -563 -415 -54 -22 -56
-24 -48 -49 5 -15 11 -48 15 -74 l6 -47 77 28 c137 50 125 53 157 -44 23 -70
38 -97 90 -157 120 -139 157 -170 232 -190 l68 -18 69 72 c94 101 126 152 126
204 0 24 -16 108 -36 189 -20 81 -34 149 -31 151 2 2 65 -27 139 -66 l135 -70
90 150 90 150 -43 83 c-59 115 -84 194 -84 270 0 76 15 123 70 216 22 38 40
75 40 82 0 27 -73 159 -126 229 -92 119 -98 143 -100 360 0 159 -3 195 -22
255 l-22 71 -87 0 c-49 0 -147 4 -219 8 -111 8 -137 6 -181 -8 -67 -22 -173
-98 -249 -177 -70 -74 -82 -94 -128 -223 -19 -53 -48 -119 -66 -147 l-32 -52
21 -26 c30 -38 80 -123 87 -147 4 -16 -7 -34 -47 -75 -29 -30 -94 -106 -144
-169 -114 -143 -117 -146 -139 -121 -14 15 -17 35 -14 102 3 89 2 91 -100 308
-12 25 -13 36 -4 39 20 6 121 88 140 113 32 41 41 63 61 157 26 119 97 262
123 246 6 -4 8 -2 5 3 -7 12 26 46 36 38 4 -3 5 -2 2 2 -7 9 72 64 180 125 50
28 110 65 134 81 39 27 42 31 27 42 -15 11 -15 13 -1 19 9 3 14 2 11 -3 -3 -5
1 -14 9 -21 13 -10 15 -9 15 9 0 12 6 21 16 21 9 0 12 -5 8 -11 -4 -7 16 1 45
17 28 16 51 35 51 42 0 9 7 11 20 7 14 -4 32 1 53 17 18 14 40 27 50 31 10 4
15 12 12 18 -4 6 13 -5 37 -23 24 -19 69 -44 99 -57 64 -29 195 -47 261 -37
47 7 47 8 92 91 34 60 46 94 45 122 -2 69 -11 87 -54 99 -38 10 -39 11 -15 18
60 18 100 40 87 48 -9 6 -9 8 0 8 6 0 15 -4 18 -10 3 -5 12 -10 18 -10 7 0 6
4 -3 10 -13 8 -12 10 3 10 10 0 15 4 12 10 -3 5 0 7 9 4 8 -3 23 -1 33 4 12 7
37 5 79 -6 l62 -16 52 57 c29 31 57 54 63 50 5 -3 7 -2 4 4 -3 5 47 61 111
124 64 63 86 82 49 43 -37 -38 -64 -74 -60 -79 4 -4 2 -5 -4 -1 -8 4 -13 1
-13 -9 0 -9 -4 -14 -9 -11 -4 3 -18 -6 -31 -19 l-23 -24 54 20 c29 11 62 25
74 32 11 6 27 12 35 12 32 4 250 78 292 100 27 13 27 13 -8 -35 -71 -99 -133
-270 -149 -410 -3 -30 -8 -66 -11 -79 l-5 -23 175 4 176 3 35 -85 c57 -135 79
-231 80 -345 0 -121 -10 -159 -91 -341 -96 -216 -99 -231 -98 -429 1 -139 5
-185 22 -250 l21 -80 -83 -85 c-155 -158 -225 -264 -261 -396 -26 -95 -30
-268 -11 -428 10 -76 20 -144 23 -152 4 -10 25 -14 79 -14 42 0 74 -4 74 -10
0 -5 -16 -67 -35 -137 l-34 -128 31 -77 c28 -72 33 -79 67 -87 69 -19 174 -41
176 -39 1 2 13 35 25 73 38 116 58 154 145 285 45 69 111 177 145 240 78 142
125 214 157 240 14 11 64 31 111 46 108 33 153 55 283 143 100 67 163 121 159
137 -1 4 112 58 252 119 287 127 311 138 427 208 120 72 195 148 216 221 19
64 17 88 -22 241 -14 55 -27 132 -30 170 l-6 70 144 120 c150 126 194 176 184
210 -30 104 -11 246 65 475 59 178 79 279 87 425 l6 111 -39 29 c-55 41 -96
77 -296 262 -288 268 -379 339 -603 475 -254 154 -467 274 -665 375 -163 82
-217 105 -330 136 -223 60 -312 68 -465 41z m348 -71 c-7 -2 -19 -2 -25 0 -7
3 -2 5 12 5 14 0 19 -2 13 -5z m-80 -10 c-7 -2 -19 -2 -25 0 -7 3 -2 5 12 5
14 0 19 -2 13 -5z m-66 -9 c-3 -3 -12 -4 -19 -1 -8 3 -5 6 6 6 11 1 17 -2 13
-5z m-60 -10 c-3 -3 -12 -4 -19 -1 -8 3 -5 6 6 6 11 1 17 -2 13 -5z m-50 -10
c-3 -3 -12 -4 -19 -1 -8 3 -5 6 6 6 11 1 17 -2 13 -5z m-377 -998 c0 -2 -8
-10 -17 -17 -16 -13 -17 -12 -4 4 13 16 21 21 21 13z m260 -29 c0 -2 -15 -16
-32 -33 l-33 -29 29 33 c28 30 36 37 36 29z m-84 -66 c-11 -12 -25 -16 -41
-13 -15 2 -25 0 -25 -7 0 -6 -5 -11 -12 -11 -23 0 16 29 44 32 15 2 30 7 34
11 16 16 16 6 0 -12z m-798 -285 c-7 -8 -15 -12 -17 -11 -5 6 10 25 20 25 5 0
4 -6 -3 -14z m-118 -56 c0 -5 -8 -10 -17 -10 -15 0 -16 2 -3 10 19 12 20 12
20 0z m-43 -35 c0 -8 -9 -15 -20 -15 -16 0 -17 3 -7 15 7 8 16 15 20 15 3 0 7
-7 7 -15z m-100 -1 c-3 -3 -12 -4 -19 -1 -8 3 -5 6 6 6 11 1 17 -2 13 -5z
m-351 -216 c4 -6 3 -8 -4 -4 -5 3 -12 0 -15 -6 -2 -7 -8 -9 -13 -5 -5 4 -2 12
6 17 19 12 17 12 26 -2z m-1130 -763 c-9 -14 -22 -25 -28 -25 -6 0 -8 -3 -5
-7 10 -9 -14 -34 -25 -26 -6 3 -8 0 -6 -8 6 -17 -84 -129 -185 -231 -140 -141
-264 -220 -350 -223 l-48 -2 23 26 c13 14 27 28 31 30 5 2 43 34 85 72 42 37
79 66 84 63 5 -3 7 -2 6 3 -2 7 79 93 89 93 12 0 123 97 123 108 0 6 3 11 8
10 4 -1 17 1 29 6 15 5 20 12 16 23 -4 10 -2 14 4 10 5 -3 21 2 34 13 13 10
47 36 74 58 28 22 52 38 54 36 2 -2 -4 -15 -13 -29z m-126 -45 c0 -5 -4 -10
-10 -10 -5 0 -10 5 -10 10 0 6 5 10 10 10 6 0 10 -4 10 -10z m-521 -433 c-2
-1 -13 -9 -24 -17 -19 -14 -19 -14 -6 3 7 9 18 17 24 17 6 0 8 -1 6 -3z"/>
<path d="M9090 26030 c0 -5 5 -10 11 -10 5 0 7 5 4 10 -3 6 -8 10 -11 10 -2 0
-4 -4 -4 -10z"/>
<path d="M23935 26021 c-3 -5 -2 -12 3 -15 5 -3 9 1 9 9 0 17 -3 19 -12 6z"/>
<path d="M6106 25873 c-6 -14 -5 -15 5 -6 7 7 10 15 7 18 -3 3 -9 -2 -12 -12z"/>
<path d="M26825 25820 c10 -11 20 -20 23 -20 3 0 -3 9 -13 20 -10 11 -20 20
-23 20 -3 0 3 -9 13 -20z"/>
<path d="M8590 25800 c0 -5 5 -10 11 -10 5 0 7 5 4 10 -3 6 -8 10 -11 10 -2 0
-4 -4 -4 -10z"/>
<path d="M24110 25720 c0 -5 5 -10 11 -10 5 0 7 5 4 10 -3 6 -8 10 -11 10 -2
0 -4 -4 -4 -10z"/>
<path d="M19750 25676 c0 -6 16 -59 36 -119 24 -73 45 -116 65 -136 34 -35
177 -87 184 -68 12 35 25 107 25 147 0 81 -29 104 -202 155 -67 20 -108 28
-108 21z"/>
<path d="M27270 25530 c-9 -6 -10 -10 -3 -10 6 0 15 5 18 10 8 12 4 12 -15 0z"/>
<path d="M9555 25479 c-11 -16 -1 -19 13 -3 7 8 8 14 3 14 -5 0 -13 -5 -16
-11z"/>
<path d="M19501 25445 c-35 -13 -67 -27 -72 -32 -10 -10 24 -126 47 -160 11
-17 24 -23 53 -23 37 0 148 33 163 48 11 11 -49 164 -69 180 -23 17 -48 15
-122 -13z"/>
<path d="M9510 25419 c0 -5 5 -7 10 -4 6 3 10 8 10 11 0 2 -4 4 -10 4 -5 0
-10 -5 -10 -11z"/>
<path d="M27143 25415 c0 -8 4 -12 9 -9 5 3 6 10 3 15 -9 13 -12 11 -12 -6z"/>
<path d="M7392 24996 c7 -8 15 -12 17 -11 5 6 -10 25 -20 25 -5 0 -4 -6 3 -14z"/>
<path d="M27725 24920 c-3 -5 -1 -10 4 -10 6 0 11 5 11 10 0 6 -2 10 -4 10 -3
0 -8 -4 -11 -10z"/>
<path d="M20760 24696 c-145 -129 -188 -178 -233 -264 -73 -139 -83 -230 -66
-608 l13 -292 55 -26 c65 -29 233 -96 341 -136 41 -15 128 -55 193 -89 l117
-63 0 -104 c0 -120 17 -104 -145 -129 -221 -35 -298 -65 -362 -143 -26 -31
-58 -55 -110 -79 -65 -31 -73 -38 -73 -63 0 -50 31 -269 66 -475 129 -749 144
-910 164 -1725 6 -245 13 -455 15 -466 5 -25 127 -72 920 -361 874 -319 1155
-435 1645 -680 470 -235 943 -495 1225 -676 263 -168 1066 -742 1295 -925
l115 -92 3 147 c8 417 -146 1476 -274 1873 -18 58 -47 166 -63 240 -75 333
-155 563 -331 946 -50 110 -127 280 -169 379 -145 333 -255 540 -529 990 -205
337 -258 414 -478 700 -351 455 -481 606 -879 1015 -141 146 -286 300 -322
342 -71 84 -97 98 -177 98 -84 0 -85 -10 -7 -79 63 -56 149 -166 168 -217 4
-10 -78 63 -183 163 -104 99 -236 220 -294 267 -58 48 -127 106 -153 131 l-48
44 -99 -17 -100 -17 6 -35 c18 -112 31 -135 104 -194 38 -31 70 -61 70 -65 0
-13 -22 -29 -51 -36 -22 -5 -154 -155 -227 -257 -16 -22 -3 -45 32 -57 30 -12
80 -199 71 -268 -4 -29 -10 -53 -15 -53 -5 0 -25 14 -45 32 -51 44 -85 115
-86 180 -2 125 -8 142 -75 192 -38 29 -81 74 -113 121 -58 83 -87 108 -180
155 l-64 32 6 -149 c8 -187 24 -254 92 -373 44 -77 95 -213 95 -252 0 -5 -47
-8 -105 -8 l-104 0 -243 90 c-312 116 -376 159 -449 302 -48 95 -62 174 -56
328 6 169 24 229 113 376 91 151 110 191 124 259 12 63 3 166 -15 171 -6 2
-62 -43 -125 -100z m2532 -1353 c14 -12 43 -73 35 -73 -2 0 -27 25 -57 56 -49
49 -52 54 -25 44 16 -6 38 -18 47 -27z m-1214 -61 c36 -43 83 -130 97 -180
l13 -47 1 82 1 83 48 -6 c26 -4 50 -9 54 -13 9 -7 13 -67 10 -140 -2 -44 -5
-52 -18 -47 -9 3 -34 9 -56 12 -40 7 -40 7 -35 -22 4 -16 9 -60 12 -99 l6 -70
-43 46 c-41 44 -47 58 -98 230 -29 101 -56 190 -58 198 -8 22 40 3 66 -27z"/>
<path d="M24561 24364 c0 -11 3 -14 6 -6 3 7 2 16 -1 19 -3 4 -6 -2 -5 -13z"/>
<path d="M28090 24359 c0 -5 5 -7 10 -4 6 3 10 8 10 11 0 2 -4 4 -10 4 -5 0
-10 -5 -10 -11z"/>
<path d="M27147 22959 c7 -7 15 -10 18 -7 3 3 -2 9 -12 12 -14 6 -15 5 -6 -5z"/>
<path d="M27306 22647 c3 -10 9 -15 12 -12 3 3 0 11 -7 18 -10 9 -11 8 -5 -6z"/>
<path d="M11396 22288 c-68 -90 -123 -164 -122 -166 2 -1 23 2 47 7 24 6 115
11 202 11 86 0 157 2 157 5 0 9 -150 305 -155 305 -2 0 -60 -73 -129 -162z"/>
<path d="M27320 22430 c0 -5 5 -10 11 -10 5 0 7 5 4 10 -3 6 -8 10 -11 10 -2
0 -4 -4 -4 -10z"/>
<path d="M5480 22420 c0 -5 5 -10 11 -10 5 0 7 5 4 10 -3 6 -8 10 -11 10 -2 0
-4 -4 -4 -10z"/>
<path d="M26166 22217 c3 -10 9 -15 12 -12 3 3 0 11 -7 18 -10 9 -11 8 -5 -6z"/>
<path d="M15746 22143 c3 -43 9 -132 12 -198 8 -141 -1 -132 159 -164 112 -23
235 -27 294 -10 108 33 165 142 193 367 l7 52 -43 0 c-24 0 -160 7 -303 15
-143 8 -275 15 -293 15 l-32 0 6 -77z"/>
<path d="M18114 21814 c-43 -31 -117 -81 -163 -111 -284 -184 -330 -396 -139
-652 40 -53 40 -53 88 -49 31 3 67 17 105 41 65 41 197 92 217 84 8 -2 63 -75
123 -161 60 -86 110 -156 111 -156 1 0 -2 15 -6 33 -5 17 -64 255 -131 527
-67 272 -122 496 -124 498 -1 1 -38 -23 -81 -54z"/>
<path d="M11673 21778 c-47 -67 -64 -105 -73 -164 -10 -62 -44 -122 -160 -284
l-78 -109 13 -63 c33 -158 27 -239 -21 -309 -14 -20 -71 -75 -127 -122 -89
-74 -176 -164 -201 -205 -4 -7 -3 -27 3 -45 11 -31 14 -32 68 -34 41 -2 251
35 718 127 363 72 670 132 683 135 l22 5 0 345 c0 190 -4 345 -8 345 -15 0
-70 -65 -115 -136 -60 -95 -120 -129 -258 -149 -46 -7 -46 -7 -53 27 -4 18
-10 68 -13 111 l-6 78 40 57 c42 60 83 134 83 151 0 6 -24 23 -52 37 -91 46
-138 94 -138 142 0 55 -63 83 -226 97 l-72 7 -29 -44z"/>
<path d="M3346 21357 c3 -10 9 -15 12 -12 3 3 0 11 -7 18 -10 9 -11 8 -5 -6z"/>
<path d="M16983 21042 c-34 -14 -64 -31 -67 -39 -8 -19 -38 -224 -34 -228 4
-4 318 -12 318 -8 0 5 -139 277 -147 289 -5 7 -28 3 -70 -14z"/>
<path d="M3405 20871 c-3 -5 -2 -12 3 -15 5 -3 9 1 9 9 0 17 -3 19 -12 6z"/>
<path d="M18118 20847 c-5 -10 -8 -27 -8 -38 0 -23 -17 -24 -42 -2 -22 20 -23
13 -8 -73 15 -85 17 -89 35 -74 10 8 15 31 15 69 0 31 5 62 11 68 6 6 9 23 7
39 -2 24 -4 26 -10 11z"/>
<path d="M27386 20497 c3 -10 9 -15 12 -12 3 3 0 11 -7 18 -10 9 -11 8 -5 -6z"/>
<path d="M29787 20389 c7 -7 15 -10 18 -7 3 3 -2 9 -12 12 -14 6 -15 5 -6 -5z"/>
<path d="M5170 20011 c0 -6 4 -13 10 -16 6 -3 7 1 4 9 -7 18 -14 21 -14 7z"/>
<path d="M29920 19875 c0 -2 6 -8 13 -14 10 -8 14 -7 14 2 0 8 -6 14 -14 14
-7 0 -13 -1 -13 -2z"/>
<path d="M29809 19523 c-13 -16 -12 -17 4 -4 9 7 17 15 17 17 0 8 -8 3 -21
-13z"/>
<path d="M5636 18978 c3 -5 10 -6 15 -3 13 9 11 12 -6 12 -8 0 -12 -4 -9 -9z"/>
<path d="M17000 18964 c-30 -2 -147 -8 -260 -14 -979 -51 -2247 -220 -2807
-376 -70 -20 -229 -62 -353 -94 -834 -217 -1366 -406 -2030 -725 -721 -345
-1203 -632 -1425 -847 -50 -48 -106 -96 -125 -106 -28 -14 -634 -495 -688
-545 -152 -142 -408 -435 -509 -583 -23 -32 -76 -95 -119 -139 -107 -110 -211
-262 -437 -640 -278 -464 -425 -764 -537 -1092 -95 -277 -112 -428 -66 -583
62 -214 300 -673 609 -1175 132 -214 257 -414 278 -442 22 -29 68 -101 102
-160 108 -186 209 -311 543 -669 366 -393 1009 -1002 1319 -1249 498 -396
1564 -1023 2221 -1304 587 -250 920 -362 1414 -472 124 -28 308 -70 410 -94
233 -55 405 -88 592 -114 226 -32 206 -37 267 68 28 49 94 148 145 219 615
850 1196 1932 1621 3017 319 815 557 1576 1055 3373 129 466 115 412 146 577
165 883 279 1766 335 2590 16 229 13 786 -4 797 -9 6 -9 8 2 8 12 0 13 23 7
138 -4 75 -7 212 -6 304 l0 167 -42 22 c-111 56 -279 96 -529 125 -109 12
-256 17 -609 19 -256 1 -490 1 -520 -1z m1218 -209 c-3 -3 -9 2 -12 12 -6 14
-5 15 5 6 7 -7 10 -15 7 -18z m413 -92 c13 -16 12 -17 -3 -4 -17 13 -22 21
-14 21 2 0 10 -8 17 -17z m-564 -35 c-3 -8 -6 -5 -6 6 -1 11 2 17 5 13 3 -3 4
-12 1 -19z m150 -100 c-3 -8 -6 -5 -6 6 -1 11 2 17 5 13 3 -3 4 -12 1 -19z
m433 -81 c0 -2 -15 -16 -32 -33 l-33 -29 29 33 c28 30 36 37 36 29z m-110 -91
c0 -2 -8 -10 -17 -17 -16 -13 -17 -12 -4 4 13 16 21 21 21 13z m-422 -103
c-15 -2 -42 -2 -60 0 -18 2 -6 4 27 4 33 0 48 -2 33 -4z m-265 -10 c-7 -2 -19
-2 -25 0 -7 3 -2 5 12 5 14 0 19 -2 13 -5z m534 -55 c-3 -8 -6 -5 -6 6 -1 11
2 17 5 13 3 -3 4 -12 1 -19z m10 -120 c-3 -8 -6 -5 -6 6 -1 11 2 17 5 13 3 -3
4 -12 1 -19z m10 -120 c-3 -8 -6 -5 -6 6 -1 11 2 17 5 13 3 -3 4 -12 1 -19z
m-2520 -1620 c-3 -7 -5 -2 -5 12 0 14 2 19 5 13 2 -7 2 -19 0 -25z m-4776
-391 c-10 -9 -11 -8 -5 6 3 10 9 15 12 12 3 -3 0 -11 -7 -18z m-273 -104 c-16
-2 -40 -2 -55 0 -16 2 -3 4 27 4 30 0 43 -2 28 -4z m5079 -45 c-3 -8 -6 -5 -6
6 -1 11 2 17 5 13 3 -3 4 -12 1 -19z m79 -430 l29 -33 -32 29 c-18 17 -33 31
-33 33 0 8 8 1 36 -29z m-5196 -131 c0 -1 -73 -74 -162 -162 l-163 -160 160
163 c148 150 165 167 165 159z m6297 -563 c-3 -3 -12 -4 -19 -1 -8 3 -5 6 6 6
11 1 17 -2 13 -5z m-100 -10 c-3 -3 -12 -4 -19 -1 -8 3 -5 6 6 6 11 1 17 -2
13 -5z m1250 0 c-3 -3 -12 -4 -19 -1 -8 3 -5 6 6 6 11 1 17 -2 13 -5z m-1389
-11 c-10 -2 -26 -2 -35 0 -10 3 -2 5 17 5 19 0 27 -2 18 -5z m-3822 -595 l29
-33 -32 29 c-18 17 -33 31 -33 33 0 8 8 1 36 -29z m1320 -570 l29 -33 -32 29
c-18 17 -33 31 -33 33 0 8 8 1 36 -29z m-129 -1130 c-3 -8 -6 -5 -6 6 -1 11 2
17 5 13 3 -3 4 -12 1 -19z m-10 -260 c-2 -24 -4 -5 -4 42 0 47 2 66 4 43 2
-24 2 -62 0 -85z m10 -150 c-3 -8 -6 -5 -6 6 -1 11 2 17 5 13 3 -3 4 -12 1
-19z m-570 -665 c-2 -16 -4 -5 -4 22 0 28 2 40 4 28 2 -13 2 -35 0 -50z"/>
<path d="M4910 18730 c-8 -5 -10 -10 -5 -10 6 0 17 5 25 10 8 5 11 10 5 10 -5
0 -17 -5 -25 -10z"/>
<path d="M20615 18487 c-4 -21 -55 -779 -55 -824 0 -13 -6 -23 -14 -23 -8 0
-17 -4 -20 -9 -3 -4 -19 -103 -36 -220 -16 -116 -38 -255 -49 -309 -10 -53
-27 -151 -36 -217 -108 -786 -387 -2000 -710 -3091 -206 -695 -343 -1117 -536
-1652 -152 -419 -239 -674 -239 -696 0 -37 -515 -1187 -700 -1564 -333 -676
-689 -1280 -1217 -2066 l-215 -319 239 6 c1190 32 2470 360 3633 930 477 234
968 529 1285 772 66 51 172 126 235 167 155 101 205 143 453 376 949 894 1680
1790 2179 2672 130 229 345 666 446 905 274 648 466 1312 586 2030 29 178 75
513 88 648 l4 38 -110 76 c-61 42 -178 126 -261 187 -82 61 -202 143 -265 184
-63 40 -173 115 -243 166 -432 313 -1201 729 -1904 1030 -1162 496 -2034 786
-2471 819 -57 5 -62 3 -67 -16z m-88 -1109 c-3 -8 -6 -5 -6 6 -1 11 2 17 5 13
3 -3 4 -12 1 -19z m29 -50 l29 -33 -32 29 c-18 17 -33 31 -33 33 0 8 8 1 36
-29z m-35 -355 c13 -16 12 -17 -3 -4 -17 13 -22 21 -14 21 2 0 10 -8 17 -17z
m80 -80 c13 -16 12 -17 -3 -4 -17 13 -22 21 -14 21 2 0 10 -8 17 -17z m1309
-1957 c0 -2 -8 -10 -17 -17 -16 -13 -17 -12 -4 4 13 16 21 21 21 13z m-923
-1258 c-3 -8 -6 -5 -6 6 -1 11 2 17 5 13 3 -3 4 -12 1 -19z m-137 -1092 c0 -2
-8 -10 -17 -17 -16 -13 -17 -12 -4 4 13 16 21 21 21 13z"/>
<path d="M27240 18031 c0 -6 4 -13 10 -16 6 -3 7 1 4 9 -7 18 -14 21 -14 7z"/>
<path d="M5236 18012 c-3 -5 1 -9 9 -9 8 0 12 4 9 9 -3 4 -7 8 -9 8 -2 0 -6
-4 -9 -8z"/>
<path d="M27380 17981 c0 -6 4 -13 10 -16 6 -3 7 1 4 9 -7 18 -14 21 -14 7z"/>
<path d="M5156 17967 c3 -10 9 -15 12 -12 3 3 0 11 -7 18 -10 9 -11 8 -5 -6z"/>
<path d="M28490 16361 c0 -6 4 -13 10 -16 6 -3 7 1 4 9 -7 18 -14 21 -14 7z"/>
<path d="M5045 16270 c3 -5 8 -10 11 -10 2 0 4 5 4 10 0 6 -5 10 -11 10 -5 0
-7 -4 -4 -10z"/>
<path d="M4280 15810 c0 -5 5 -10 11 -10 5 0 7 5 4 10 -3 6 -8 10 -11 10 -2 0
-4 -4 -4 -10z"/>
<path d="M27526 15343 c-6 -14 -5 -15 5 -6 7 7 10 15 7 18 -3 3 -9 -2 -12 -12z"/>
<path d="M5706 15182 c-3 -5 1 -9 9 -9 8 0 12 4 9 9 -3 4 -7 8 -9 8 -2 0 -6
-4 -9 -8z"/>
<path d="M5735 14980 c-3 -6 1 -7 9 -4 18 7 21 14 7 14 -6 0 -13 -4 -16 -10z"/>
<path d="M5031 14684 c0 -11 3 -14 6 -6 3 7 2 16 -1 19 -3 4 -6 -2 -5 -13z"/>
<path d="M29661 13671 c-8 -5 -9 -11 -3 -15 5 -3 12 1 16 9 6 17 6 18 -13 6z"/>
<path d="M5146 13143 c-6 -14 -5 -15 5 -6 7 7 10 15 7 18 -3 3 -9 -2 -12 -12z"/>
<path d="M26920 12990 c-9 -6 -10 -10 -3 -10 6 0 15 5 18 10 8 12 4 12 -15 0z"/>
<path d="M26723 12945 c0 -8 4 -12 9 -9 5 3 6 10 3 15 -9 13 -12 11 -12 -6z"/>
<path d="M27795 12680 c-3 -5 -1 -10 4 -10 6 0 11 5 11 10 0 6 -2 10 -4 10 -3
0 -8 -4 -11 -10z"/>
<path d="M6036 12521 c-4 -5 -2 -12 3 -15 5 -4 12 -2 15 3 4 5 2 12 -3 15 -5
4 -12 2 -15 -3z"/>
<path d="M5876 12383 c-6 -14 -5 -15 5 -6 7 7 10 15 7 18 -3 3 -9 -2 -12 -12z"/>
<path d="M6530 12226 c0 -2 7 -7 16 -10 8 -3 12 -2 9 4 -6 10 -25 14 -25 6z"/>
<path d="M5445 11840 c-3 -6 1 -7 9 -4 18 7 21 14 7 14 -6 0 -13 -4 -16 -10z"/>
<path d="M5470 11730 c0 -5 5 -10 11 -10 5 0 7 5 4 10 -3 6 -8 10 -11 10 -2 0
-4 -4 -4 -10z"/>
<path d="M3980 11160 c0 -5 5 -10 11 -10 5 0 7 5 4 10 -3 6 -8 10 -11 10 -2 0
-4 -4 -4 -10z"/>
<path d="M28756 11161 c-4 -5 -2 -12 3 -15 5 -4 12 -2 15 3 4 5 2 12 -3 15 -5
4 -12 2 -15 -3z"/>
<path d="M6551 10513 c-1 -17 16 -25 25 -12 4 7 3 9 -4 5 -5 -3 -13 0 -15 6
-4 9 -6 10 -6 1z"/>
<path d="M6210 10471 c0 -6 4 -13 10 -16 6 -3 7 1 4 9 -7 18 -14 21 -14 7z"/>
<path d="M5072 9236 c7 -8 15 -12 17 -11 5 6 -10 25 -20 25 -5 0 -4 -6 3 -14z"/>
<path d="M5185 9071 c-3 -5 -2 -12 3 -15 5 -3 9 1 9 9 0 17 -3 19 -12 6z"/>
<path d="M27472 9004 c-7 -8 -8 -14 -3 -14 10 0 25 19 20 25 -2 1 -10 -3 -17
-11z"/>
<path d="M5340 8870 c0 -5 5 -10 11 -10 5 0 7 5 4 10 -3 6 -8 10 -11 10 -2 0
-4 -4 -4 -10z"/>
<path d="M9071 7813 c-294 -406 -534 -744 -535 -750 -1 -14 353 -275 364 -268
4 3 157 212 341 466 207 286 335 454 336 443 2 -11 16 -181 33 -379 30 -356
31 -360 56 -383 14 -12 33 -21 42 -18 87 24 715 167 718 163 3 -3 -143 -210
-325 -462 -182 -251 -331 -459 -331 -463 0 -6 91 -73 316 -234 l52 -38 536
741 c295 408 538 746 539 751 3 13 -302 237 -323 238 -8 0 -208 -45 -444 -101
-235 -55 -430 -99 -431 -97 -2 2 -20 204 -41 450 l-39 448 -151 110 c-83 60
-157 112 -165 115 -10 3 -185 -231 -548 -732z"/>
<path d="M5550 8516 c0 -2 7 -7 16 -10 8 -3 12 -2 9 4 -6 10 -25 14 -25 6z"/>
<path d="M23170 8381 c-164 -35 -309 -106 -470 -227 -297 -224 -440 -498 -441
-844 -1 -191 44 -342 146 -495 176 -265 451 -408 785 -407 246 0 449 74 680
248 279 210 422 474 437 804 7 158 -17 283 -76 407 -125 260 -318 423 -594
499 -127 35 -343 42 -467 15z m263 -406 c98 -25 176 -72 252 -149 127 -131
184 -258 185 -411 0 -103 -14 -165 -58 -251 -76 -150 -264 -292 -441 -334 -76
-18 -221 -8 -293 19 -214 82 -387 327 -388 548 -1 251 213 502 491 577 71 19
181 20 252 1z"/>
<path d="M6186 8087 c3 -10 9 -15 12 -12 3 3 0 11 -7 18 -10 9 -11 8 -5 -6z"/>
<path d="M6116 7912 c-3 -5 1 -9 9 -9 8 0 15 4 15 9 0 4 -4 8 -9 8 -6 0 -12
-4 -15 -8z"/>
<path d="M6352 7636 c7 -8 15 -12 17 -11 5 6 -10 25 -20 25 -5 0 -4 -6 3 -14z"/>
<path d="M6910 7316 c0 -2 8 -10 18 -17 15 -13 16 -12 3 4 -13 16 -21 21 -21
13z"/>
<path d="M12831 7166 c-84 -84 -149 -156 -145 -158 5 -3 50 -17 99 -32 l90
-27 264 116 c146 63 266 117 269 119 4 5 -397 136 -414 136 -5 0 -78 -69 -163
-154z"/>
<path d="M20570 6961 c-274 -51 -540 -175 -717 -336 -130 -117 -248 -310 -295
-480 -31 -115 -31 -335 0 -450 31 -110 110 -268 177 -353 179 -223 488 -356
788 -338 127 8 224 28 368 76 140 46 243 97 368 180 92 62 271 222 271 244 0
11 -119 357 -126 365 -2 2 -53 -43 -114 -100 -196 -183 -312 -257 -490 -314
-112 -36 -273 -45 -374 -21 -203 48 -359 197 -411 392 -52 192 10 390 170 543
185 175 491 258 820 221 50 -6 98 -13 108 -16 10 -3 17 0 17 8 0 7 -28 93 -63
192 -41 114 -70 182 -81 188 -10 6 -84 12 -165 14 -113 3 -169 -1 -251 -15z"/>
<path d="M11921 6103 c-155 -478 -282 -873 -281 -879 0 -14 1279 -429 1290
-418 12 14 104 303 98 310 -3 3 -194 66 -425 141 -230 75 -420 137 -422 139
-9 8 134 424 144 420 48 -18 788 -256 790 -254 11 14 103 314 97 319 -4 3
-179 62 -390 130 -211 68 -388 126 -392 129 -8 5 94 347 109 362 3 4 192 -54
420 -128 227 -75 417 -132 421 -127 15 17 101 306 93 313 -9 8 -1245 410
-1260 410 -5 0 -136 -390 -292 -867z"/>
<path d="M7075 6920 c3 -5 8 -10 11 -10 2 0 4 5 4 10 0 6 -5 10 -11 10 -5 0
-7 -4 -4 -10z"/>
<path d="M14471 6273 c2 -5 152 -217 333 -472 l328 -462 -23 -27 c-13 -14
-205 -216 -426 -448 l-403 -422 58 -6 c139 -15 472 -37 503 -34 32 3 63 32
299 281 145 153 266 274 270 270 4 -4 105 -147 225 -318 120 -170 219 -311
220 -313 5 -6 595 -47 593 -41 -2 3 -164 232 -362 508 l-358 501 48 53 c27 28
202 213 389 411 187 197 341 361 343 365 1 4 -128 17 -287 28 l-290 22 -69
-72 c-38 -40 -142 -151 -231 -247 -90 -96 -166 -176 -171 -178 -4 -2 -96 125
-204 281 l-197 283 -242 18 c-133 9 -266 20 -296 23 -33 4 -52 2 -50 -4z"/>
<path d="M17898 6250 c-120 -14 -220 -29 -223 -32 -7 -6 210 -1816 218 -1825
6 -6 360 32 422 45 l31 7 -109 910 c-60 501 -112 913 -115 916 -4 3 -105 -6
-224 -21z"/>
<path d="M7906 5775 c-188 -48 -353 -213 -412 -410 -25 -85 -24 -220 4 -310
22 -72 76 -171 117 -215 13 -14 37 -60 54 -103 67 -169 136 -279 233 -375 l54
-52 107 17 107 17 -49 23 c-57 27 -140 113 -206 211 -25 36 -43 67 -42 69 2 1
32 -7 67 -18 97 -31 230 -29 336 5 194 62 347 234 390 438 38 179 -30 385
-171 524 -67 65 -181 136 -265 165 -84 28 -240 35 -324 14z m277 -165 c77 -24
172 -85 223 -143 20 -23 51 -71 68 -107 29 -60 31 -73 31 -170 0 -97 -2 -110
-32 -173 -84 -177 -276 -282 -455 -249 -243 45 -415 269 -378 494 19 121 108
251 214 313 94 55 220 68 329 35z"/>
<path d="M24695 5750 c-263 -35 -497 -248 -545 -498 -57 -288 136 -593 420
-667 91 -24 252 -16 334 15 206 79 371 254 420 446 33 128 16 281 -45 394
-118 221 -344 341 -584 310z m202 -180 c124 -43 228 -155 267 -289 43 -148 -6
-315 -126 -426 -185 -171 -450 -170 -610 3 -168 183 -166 427 6 597 131 129
300 171 463 115z"/>
<path d="M9885 4338 c-179 -350 -202 -400 -216 -475 -33 -179 78 -360 284
-462 243 -120 454 -82 583 104 38 55 368 685 362 690 -9 8 -129 65 -137 65 -5
0 -80 -138 -166 -307 -172 -335 -196 -376 -251 -422 -103 -84 -296 -55 -424
65 -89 83 -114 160 -85 260 9 33 91 205 182 382 90 178 163 325 161 327 -8 7
-128 65 -135 65 -4 0 -75 -132 -158 -292z"/>
<path d="M22543 4475 c-39 -11 -344 -154 -361 -170 -2 -2 113 -228 255 -503
l258 -500 67 34 c38 19 68 39 68 45 0 7 -47 103 -105 214 -58 112 -105 207
-105 213 0 18 103 56 150 55 65 -2 168 -44 300 -122 63 -38 139 -82 169 -99
l55 -30 83 41 c46 23 83 44 83 48 0 4 -10 9 -22 13 -13 3 -97 49 -188 102
-170 100 -300 164 -335 164 -42 1 -48 15 -22 53 73 108 52 269 -48 371 -73 74
-193 102 -302 71z m131 -149 c42 -17 81 -68 95 -123 24 -89 -22 -157 -152
-228 -37 -21 -69 -36 -71 -34 -2 2 -38 73 -80 157 -89 178 -92 161 34 211 84
34 125 38 174 17z"/>
<path d="M12125 3718 c-7 -20 -295 -1042 -298 -1056 -1 -10 84 -38 293 -98
162 -46 304 -85 314 -86 16 -2 22 9 37 61 10 36 17 66 15 68 -2 2 -106 33
-232 69 -126 36 -230 67 -232 69 -4 3 86 327 92 332 1 2 98 -24 215 -57 116
-33 216 -60 220 -60 9 0 47 128 40 134 -2 2 -96 30 -209 61 -113 31 -210 60
-216 64 -8 4 3 56 34 166 25 88 46 161 47 162 0 1 104 -27 230 -62 126 -36
229 -64 230 -62 7 10 35 130 32 134 -4 3 -595 173 -605 173 -1 0 -5 -6 -7 -12z"/>
<path d="M20510 3678 c-19 -5 -39 -13 -43 -17 -9 -9 -159 -1176 -155 -1202 3
-14 11 -14 78 5 l75 22 22 178 c12 98 24 180 25 181 2 1 105 32 231 67 l227
65 117 -139 c130 -154 109 -144 221 -111 49 14 52 16 40 34 -54 77 -776 928
-788 927 -8 0 -31 -4 -50 -10z m215 -409 c74 -88 135 -163 135 -168 0 -7 -322
-102 -328 -97 -1 2 9 96 23 210 14 113 25 208 25 211 0 14 19 -7 145 -156z"/>
<path d="M16413 3260 l-51 -120 47 0 46 0 75 107 c41 59 79 113 83 120 6 10
-8 13 -71 13 l-79 0 -50 -120z"/>
<path d="M18650 3229 c-201 -26 -409 -53 -463 -59 l-98 -12 7 -67 c3 -36 8
-68 11 -71 2 -2 87 6 189 19 102 13 187 21 190 19 2 -3 32 -222 66 -487 l62
-482 51 6 c89 11 105 16 105 33 0 9 -27 226 -60 482 -33 255 -56 467 -52 471
4 3 91 17 194 29 l187 23 -6 51 c-12 104 32 98 -383 45z"/>
<path d="M13976 2713 c-37 -296 -70 -547 -73 -559 -4 -19 2 -22 76 -30 76 -9
80 -9 85 11 2 11 17 120 32 243 l28 223 45 -7 c106 -14 181 -82 250 -227 16
-34 56 -119 90 -189 33 -71 61 -128 63 -129 28 -7 188 -24 185 -20 -1 3 -55
112 -119 241 -81 163 -131 251 -162 286 l-45 51 39 12 c56 16 133 90 160 153
18 40 23 72 23 128 0 91 -16 133 -78 198 -78 85 -136 102 -480 147 l-50 6 -69
-538z m337 362 c38 -8 84 -24 104 -36 40 -25 72 -86 73 -139 0 -49 -38 -120
-80 -148 -33 -23 -42 -24 -148 -19 -62 2 -114 6 -116 8 -3 3 38 330 43 347 2
6 63 0 124 -13z"/>
<path d="M16316 3053 l-148 -4 7 -317 c4 -174 10 -427 14 -562 l6 -245 195 3
c107 1 255 5 328 8 l132 6 0 57 c0 31 -4 62 -9 70 -8 12 -49 13 -250 7 l-240
-8 -3 174 c-2 95 -3 174 -2 176 1 1 103 5 228 9 l226 6 0 71 0 71 -230 -3
-230 -4 0 104 c0 56 -3 133 -7 171 l-6 67 90 0 c49 0 158 3 241 7 l152 6 0 69
0 68 -172 -2 c-95 -1 -240 -4 -322 -5z"/>
</g>
</svg>
